<mxfile host="65bd71144e">
    <diagram id="d4OGncu2LQISDNo5nAQ9" name="Page-1">
        <mxGraphModel dx="1360" dy="568" grid="1" gridSize="10" guides="1" tooltips="1" connect="1" arrows="1" fold="1" page="1" pageScale="1" pageWidth="1169" pageHeight="827" math="0" shadow="0">
            <root>
                <mxCell id="0"/>
                <mxCell id="1" parent="0"/>
                <mxCell id="2" value="Pessoa" style="swimlane;fontStyle=0;childLayout=stackLayout;horizontal=1;startSize=26;fillColor=none;horizontalStack=0;resizeParent=1;resizeParentMax=0;resizeLast=0;collapsible=1;marginBottom=0;" vertex="1" parent="1">
                    <mxGeometry x="80" y="150" width="140" height="130" as="geometry"/>
                </mxCell>
                <mxCell id="3" value="&lt;&lt;oid&gt;&gt; id: Int" style="text;strokeColor=none;fillColor=none;align=left;verticalAlign=top;spacingLeft=4;spacingRight=4;overflow=hidden;rotatable=0;points=[[0,0.5],[1,0.5]];portConstraint=eastwest;" vertex="1" parent="2">
                    <mxGeometry y="26" width="140" height="26" as="geometry"/>
                </mxCell>
                <mxCell id="dYPANHIZL_AqrqRAbSKh-5" value="nome: String" style="text;strokeColor=none;fillColor=none;align=left;verticalAlign=top;spacingLeft=4;spacingRight=4;overflow=hidden;rotatable=0;points=[[0,0.5],[1,0.5]];portConstraint=eastwest;" vertex="1" parent="2">
                    <mxGeometry y="52" width="140" height="26" as="geometry"/>
                </mxCell>
                <mxCell id="4" value="cpf: String" style="text;strokeColor=none;fillColor=none;align=left;verticalAlign=top;spacingLeft=4;spacingRight=4;overflow=hidden;rotatable=0;points=[[0,0.5],[1,0.5]];portConstraint=eastwest;" vertex="1" parent="2">
                    <mxGeometry y="78" width="140" height="26" as="geometry"/>
                </mxCell>
                <mxCell id="5" value="genero: Genero" style="text;strokeColor=none;fillColor=none;align=left;verticalAlign=top;spacingLeft=4;spacingRight=4;overflow=hidden;rotatable=0;points=[[0,0.5],[1,0.5]];portConstraint=eastwest;" vertex="1" parent="2">
                    <mxGeometry y="104" width="140" height="26" as="geometry"/>
                </mxCell>
                <mxCell id="dYPANHIZL_AqrqRAbSKh-6" value="Piloto" style="swimlane;fontStyle=0;childLayout=stackLayout;horizontal=1;startSize=26;fillColor=none;horizontalStack=0;resizeParent=1;resizeParentMax=0;resizeLast=0;collapsible=1;marginBottom=0;" vertex="1" parent="1">
                    <mxGeometry x="80" y="480" width="140" height="52" as="geometry"/>
                </mxCell>
                <mxCell id="dYPANHIZL_AqrqRAbSKh-7" value="numeroLicenca: String" style="text;strokeColor=none;fillColor=none;align=left;verticalAlign=top;spacingLeft=4;spacingRight=4;overflow=hidden;rotatable=0;points=[[0,0.5],[1,0.5]];portConstraint=eastwest;" vertex="1" parent="dYPANHIZL_AqrqRAbSKh-6">
                    <mxGeometry y="26" width="140" height="26" as="geometry"/>
                </mxCell>
                <mxCell id="dYPANHIZL_AqrqRAbSKh-10" value="Passageiro" style="swimlane;fontStyle=0;childLayout=stackLayout;horizontal=1;startSize=26;fillColor=none;horizontalStack=0;resizeParent=1;resizeParentMax=0;resizeLast=0;collapsible=1;marginBottom=0;" vertex="1" parent="1">
                    <mxGeometry x="480" y="189" width="140" height="52" as="geometry"/>
                </mxCell>
                <mxCell id="dYPANHIZL_AqrqRAbSKh-11" value="dataNascimento: Date" style="text;strokeColor=none;fillColor=none;align=left;verticalAlign=top;spacingLeft=4;spacingRight=4;overflow=hidden;rotatable=0;points=[[0,0.5],[1,0.5]];portConstraint=eastwest;" vertex="1" parent="dYPANHIZL_AqrqRAbSKh-10">
                    <mxGeometry y="26" width="140" height="26" as="geometry"/>
                </mxCell>
                <mxCell id="dYPANHIZL_AqrqRAbSKh-14" value="&lt;&lt;weak&gt;&gt;&#10;Telefone" style="swimlane;fontStyle=0;childLayout=stackLayout;horizontal=1;startSize=26;fillColor=none;horizontalStack=0;resizeParent=1;resizeParentMax=0;resizeLast=0;collapsible=1;marginBottom=0;" vertex="1" parent="1">
                    <mxGeometry x="480" width="140" height="52" as="geometry"/>
                </mxCell>
                <mxCell id="dYPANHIZL_AqrqRAbSKh-15" value="numeroTelefone: String" style="text;strokeColor=none;fillColor=none;align=left;verticalAlign=top;spacingLeft=4;spacingRight=4;overflow=hidden;rotatable=0;points=[[0,0.5],[1,0.5]];portConstraint=eastwest;" vertex="1" parent="dYPANHIZL_AqrqRAbSKh-14">
                    <mxGeometry y="26" width="140" height="26" as="geometry"/>
                </mxCell>
                <mxCell id="dYPANHIZL_AqrqRAbSKh-18" value="Voo" style="swimlane;fontStyle=0;childLayout=stackLayout;horizontal=1;startSize=26;fillColor=none;horizontalStack=0;resizeParent=1;resizeParentMax=0;resizeLast=0;collapsible=1;marginBottom=0;" vertex="1" parent="1">
                    <mxGeometry x="480" y="454" width="140" height="104" as="geometry"/>
                </mxCell>
                <mxCell id="dYPANHIZL_AqrqRAbSKh-19" value="&lt;&lt;oid&gt;&gt; id: Int" style="text;strokeColor=none;fillColor=none;align=left;verticalAlign=top;spacingLeft=4;spacingRight=4;overflow=hidden;rotatable=0;points=[[0,0.5],[1,0.5]];portConstraint=eastwest;" vertex="1" parent="dYPANHIZL_AqrqRAbSKh-18">
                    <mxGeometry y="26" width="140" height="26" as="geometry"/>
                </mxCell>
                <mxCell id="dYPANHIZL_AqrqRAbSKh-20" value="numero: Int" style="text;strokeColor=none;fillColor=none;align=left;verticalAlign=top;spacingLeft=4;spacingRight=4;overflow=hidden;rotatable=0;points=[[0,0.5],[1,0.5]];portConstraint=eastwest;" vertex="1" parent="dYPANHIZL_AqrqRAbSKh-18">
                    <mxGeometry y="52" width="140" height="26" as="geometry"/>
                </mxCell>
                <mxCell id="dYPANHIZL_AqrqRAbSKh-22" value="dataHora: Date" style="text;strokeColor=none;fillColor=none;align=left;verticalAlign=top;spacingLeft=4;spacingRight=4;overflow=hidden;rotatable=0;points=[[0,0.5],[1,0.5]];portConstraint=eastwest;" vertex="1" parent="dYPANHIZL_AqrqRAbSKh-18">
                    <mxGeometry y="78" width="140" height="26" as="geometry"/>
                </mxCell>
                <mxCell id="dYPANHIZL_AqrqRAbSKh-23" value="ReservaVoo" style="swimlane;fontStyle=0;childLayout=stackLayout;horizontal=1;startSize=26;fillColor=none;horizontalStack=0;resizeParent=1;resizeParentMax=0;resizeLast=0;collapsible=1;marginBottom=0;" vertex="1" parent="1">
                    <mxGeometry x="720" y="320" width="140" height="52" as="geometry"/>
                </mxCell>
                <mxCell id="dYPANHIZL_AqrqRAbSKh-24" value="assento: String" style="text;strokeColor=none;fillColor=none;align=left;verticalAlign=top;spacingLeft=4;spacingRight=4;overflow=hidden;rotatable=0;points=[[0,0.5],[1,0.5]];portConstraint=eastwest;" vertex="1" parent="dYPANHIZL_AqrqRAbSKh-23">
                    <mxGeometry y="26" width="140" height="26" as="geometry"/>
                </mxCell>
                <mxCell id="dYPANHIZL_AqrqRAbSKh-27" value="" style="endArrow=none;html=1;edgeStyle=orthogonalEdgeStyle;" edge="1" parent="1" source="2" target="dYPANHIZL_AqrqRAbSKh-10">
                    <mxGeometry relative="1" as="geometry">
                        <mxPoint x="510" y="380" as="sourcePoint"/>
                        <mxPoint x="670" y="380" as="targetPoint"/>
                    </mxGeometry>
                </mxCell>
                <mxCell id="dYPANHIZL_AqrqRAbSKh-28" value="pessoa&lt;br&gt;1" style="edgeLabel;resizable=0;html=1;align=left;verticalAlign=bottom;" connectable="0" vertex="1" parent="dYPANHIZL_AqrqRAbSKh-27">
                    <mxGeometry x="-1" relative="1" as="geometry"/>
                </mxCell>
                <mxCell id="dYPANHIZL_AqrqRAbSKh-29" value="passageiro&lt;br&gt;0..1" style="edgeLabel;resizable=0;html=1;align=right;verticalAlign=bottom;" connectable="0" vertex="1" parent="dYPANHIZL_AqrqRAbSKh-27">
                    <mxGeometry x="1" relative="1" as="geometry"/>
                </mxCell>
                <mxCell id="dYPANHIZL_AqrqRAbSKh-30" value="" style="endArrow=none;html=1;edgeStyle=orthogonalEdgeStyle;" edge="1" parent="1" source="2" target="dYPANHIZL_AqrqRAbSKh-6">
                    <mxGeometry relative="1" as="geometry">
                        <mxPoint x="510" y="380" as="sourcePoint"/>
                        <mxPoint x="670" y="380" as="targetPoint"/>
                    </mxGeometry>
                </mxCell>
                <mxCell id="dYPANHIZL_AqrqRAbSKh-31" value="pessoa&lt;br&gt;1" style="edgeLabel;resizable=0;html=1;align=left;verticalAlign=bottom;" connectable="0" vertex="1" parent="dYPANHIZL_AqrqRAbSKh-30">
                    <mxGeometry x="-1" relative="1" as="geometry">
                        <mxPoint y="30" as="offset"/>
                    </mxGeometry>
                </mxCell>
                <mxCell id="dYPANHIZL_AqrqRAbSKh-32" value="piloto&lt;br&gt;0..1" style="edgeLabel;resizable=0;html=1;align=right;verticalAlign=bottom;" connectable="0" vertex="1" parent="dYPANHIZL_AqrqRAbSKh-30">
                    <mxGeometry x="1" relative="1" as="geometry"/>
                </mxCell>
                <mxCell id="dYPANHIZL_AqrqRAbSKh-33" value="" style="endArrow=none;html=1;edgeStyle=orthogonalEdgeStyle;" edge="1" parent="1" source="dYPANHIZL_AqrqRAbSKh-6" target="dYPANHIZL_AqrqRAbSKh-18">
                    <mxGeometry relative="1" as="geometry">
                        <mxPoint x="510" y="380" as="sourcePoint"/>
                        <mxPoint x="670" y="380" as="targetPoint"/>
                    </mxGeometry>
                </mxCell>
                <mxCell id="dYPANHIZL_AqrqRAbSKh-34" value="piloto&lt;br&gt;1" style="edgeLabel;resizable=0;html=1;align=left;verticalAlign=bottom;" connectable="0" vertex="1" parent="dYPANHIZL_AqrqRAbSKh-33">
                    <mxGeometry x="-1" relative="1" as="geometry"/>
                </mxCell>
                <mxCell id="dYPANHIZL_AqrqRAbSKh-35" value="voos&lt;br&gt;*" style="edgeLabel;resizable=0;html=1;align=right;verticalAlign=bottom;" connectable="0" vertex="1" parent="dYPANHIZL_AqrqRAbSKh-33">
                    <mxGeometry x="1" relative="1" as="geometry"/>
                </mxCell>
                <mxCell id="dYPANHIZL_AqrqRAbSKh-36" value="" style="endArrow=none;html=1;edgeStyle=orthogonalEdgeStyle;" edge="1" parent="1" source="dYPANHIZL_AqrqRAbSKh-10" target="dYPANHIZL_AqrqRAbSKh-18">
                    <mxGeometry relative="1" as="geometry">
                        <mxPoint x="510" y="380" as="sourcePoint"/>
                        <mxPoint x="670" y="380" as="targetPoint"/>
                    </mxGeometry>
                </mxCell>
                <mxCell id="dYPANHIZL_AqrqRAbSKh-37" value="passageiros&lt;br&gt;*" style="edgeLabel;resizable=0;html=1;align=left;verticalAlign=bottom;" connectable="0" vertex="1" parent="dYPANHIZL_AqrqRAbSKh-36">
                    <mxGeometry x="-1" relative="1" as="geometry">
                        <mxPoint y="29" as="offset"/>
                    </mxGeometry>
                </mxCell>
                <mxCell id="dYPANHIZL_AqrqRAbSKh-38" value="voos&lt;br&gt;*" style="edgeLabel;resizable=0;html=1;align=right;verticalAlign=bottom;" connectable="0" vertex="1" parent="dYPANHIZL_AqrqRAbSKh-36">
                    <mxGeometry x="1" relative="1" as="geometry"/>
                </mxCell>
                <mxCell id="dYPANHIZL_AqrqRAbSKh-39" value="" style="endArrow=none;html=1;edgeStyle=orthogonalEdgeStyle;dashed=1;" edge="1" parent="1" source="dYPANHIZL_AqrqRAbSKh-23">
                    <mxGeometry relative="1" as="geometry">
                        <mxPoint x="510" y="380" as="sourcePoint"/>
                        <mxPoint x="550" y="346" as="targetPoint"/>
                    </mxGeometry>
                </mxCell>
                <mxCell id="dYPANHIZL_AqrqRAbSKh-47" value="" style="endArrow=classic;html=1;edgeStyle=orthogonalEdgeStyle;endFill=0;" edge="1" parent="1" source="dYPANHIZL_AqrqRAbSKh-10" target="dYPANHIZL_AqrqRAbSKh-14">
                    <mxGeometry relative="1" as="geometry">
                        <mxPoint x="510" y="180" as="sourcePoint"/>
                        <mxPoint x="670" y="180" as="targetPoint"/>
                    </mxGeometry>
                </mxCell>
                <mxCell id="dYPANHIZL_AqrqRAbSKh-49" value="telefones&lt;br&gt;1..*" style="edgeLabel;resizable=0;html=1;align=right;verticalAlign=bottom;" connectable="0" vertex="1" parent="dYPANHIZL_AqrqRAbSKh-47">
                    <mxGeometry x="1" relative="1" as="geometry">
                        <mxPoint x="-10" y="28" as="offset"/>
                    </mxGeometry>
                </mxCell>
            </root>
        </mxGraphModel>
    </diagram>
    <diagram id="O99IAZ17C4fv4CnvJ7fQ" name="Page-2">
        <mxGraphModel dx="1360" dy="568" grid="1" gridSize="10" guides="1" tooltips="1" connect="1" arrows="1" fold="1" page="1" pageScale="1" pageWidth="1169" pageHeight="827" math="0" shadow="0">
            <root>
                <mxCell id="_iH36bs-zdBoyuEVFaP3-0"/>
                <mxCell id="_iH36bs-zdBoyuEVFaP3-1" parent="_iH36bs-zdBoyuEVFaP3-0"/>
                <mxCell id="_iH36bs-zdBoyuEVFaP3-2" value="&lt;&lt;enumeration&gt;&gt;&#10;Genero" style="swimlane;fontStyle=0;childLayout=stackLayout;horizontal=1;startSize=26;fillColor=none;horizontalStack=0;resizeParent=1;resizeParentMax=0;resizeLast=0;collapsible=1;marginBottom=0;" vertex="1" parent="_iH36bs-zdBoyuEVFaP3-1">
                    <mxGeometry x="510" y="240" width="140" height="104" as="geometry"/>
                </mxCell>
                <mxCell id="_iH36bs-zdBoyuEVFaP3-3" value="MASCULINO: Int" style="text;strokeColor=none;fillColor=none;align=left;verticalAlign=top;spacingLeft=4;spacingRight=4;overflow=hidden;rotatable=0;points=[[0,0.5],[1,0.5]];portConstraint=eastwest;" vertex="1" parent="_iH36bs-zdBoyuEVFaP3-2">
                    <mxGeometry y="26" width="140" height="26" as="geometry"/>
                </mxCell>
                <mxCell id="_iH36bs-zdBoyuEVFaP3-4" value="FEMININO: Int" style="text;strokeColor=none;fillColor=none;align=left;verticalAlign=top;spacingLeft=4;spacingRight=4;overflow=hidden;rotatable=0;points=[[0,0.5],[1,0.5]];portConstraint=eastwest;" vertex="1" parent="_iH36bs-zdBoyuEVFaP3-2">
                    <mxGeometry y="52" width="140" height="26" as="geometry"/>
                </mxCell>
                <mxCell id="_iH36bs-zdBoyuEVFaP3-5" value="NAOBINARIO: Int" style="text;strokeColor=none;fillColor=none;align=left;verticalAlign=top;spacingLeft=4;spacingRight=4;overflow=hidden;rotatable=0;points=[[0,0.5],[1,0.5]];portConstraint=eastwest;" vertex="1" parent="_iH36bs-zdBoyuEVFaP3-2">
                    <mxGeometry y="78" width="140" height="26" as="geometry"/>
                </mxCell>
            </root>
        </mxGraphModel>
    </diagram>
</mxfile>